<svg width="112" height="112" viewBox="0 0 112 112" fill="none" xmlns="http://www.w3.org/2000/svg">
  <defs>
    <linearGradient id="a" x1="17" y1="16" x2="94" y2="98" gradientUnits="userSpaceOnUse">
      <stop stop-color="#73D7FF"/>
      <stop offset="1" stop-color="#1769CE"/>
    </linearGradient>
  </defs>
  <rect x="7" y="7" width="98" height="98" rx="25" fill="url(#a)"/>
  <rect x="8" y="8" width="96" height="96" rx="24" stroke="white" stroke-opacity=".4" stroke-width="2"/>
  <path d="M22 39C22 34.6 25.6 31 30 31H47L55 39H84C88.4 39 92 42.6 92 47V80C92 84.4 88.4 88 84 88H30C25.6 88 22 84.4 22 80V39Z" fill="#FFF4C8"/>
  <path d="M22 50H92V80C92 84.4 88.4 88 84 88H30C25.6 88 22 84.4 22 80V50Z" fill="#FFD45A"/>
  <path d="M34 63H64M34 73H78" stroke="#A76413" stroke-width="4" stroke-linecap="round"/>
</svg>
